<svg xmlns="http://www.w3.org/2000/svg" width="37" height="37" viewBox="0 0 37 37">
  <path id="Exclusion_1" data-name="Exclusion 1" d="M27,37H10A10.011,10.011,0,0,1,0,27V10A10.011,10.011,0,0,1,10,0H27A10.011,10.011,0,0,1,37,10V27A10.011,10.011,0,0,1,27,37ZM8.834,19.606h9.158v9.207a.832.832,0,0,0,1.665,0V19.655h9.158a.832.832,0,0,0,0-1.665H19.656V8.833a.832.832,0,1,0-1.665,0V17.99H8.834A.834.834,0,0,0,8,18.823a.759.759,0,0,0,.758.787C8.783,19.609,8.809,19.608,8.834,19.606Z" fill="#fff"/>
</svg>
